<?xml version="1.0" encoding="UTF-8" standalone="no"?>
<!-- Created with Inkscape (http://www.inkscape.org/) -->

<svg
   xmlns:dc="http://purl.org/dc/elements/1.1/"
   xmlns:cc="http://creativecommons.org/ns#"
   xmlns:rdf="http://www.w3.org/1999/02/22-rdf-syntax-ns#"
   xmlns:svg="http://www.w3.org/2000/svg"
   xmlns="http://www.w3.org/2000/svg"
   xmlns:sodipodi="http://sodipodi.sourceforge.net/DTD/sodipodi-0.dtd"
   xmlns:inkscape="http://www.inkscape.org/namespaces/inkscape"
   width="219.35922mm"
   height="145.09543mm"
   viewBox="0 0 777.25709 514.11766"
   id="svg2"
   version="1.1"
   inkscape:version="0.91 r13725"
   sodipodi:docname="transtrad1.svg">
  <defs
     id="defs4">
    <marker
       inkscape:stockid="Arrow2Mend"
       orient="auto"
       refY="0"
       refX="0"
       id="marker4774"
       style="overflow:visible"
       inkscape:isstock="true">
      <path
         id="path4776"
         style="fill:#000000;fill-opacity:1;fill-rule:evenodd;stroke:#000000;stroke-width:0.625;stroke-linejoin:round;stroke-opacity:1"
         d="M 8.7185878,4.0337352 -2.2072895,0.01601326 8.7185884,-4.0017078 c -1.7454984,2.3720609 -1.7354408,5.6174519 -6e-7,8.035443 z"
         transform="scale(-0.6,-0.6)"
         inkscape:connector-curvature="0" />
    </marker>
    <marker
       inkscape:isstock="true"
       style="overflow:visible"
       id="marker4728"
       refX="0"
       refY="0"
       orient="auto"
       inkscape:stockid="Arrow2Mend">
      <path
         transform="scale(-0.6,-0.6)"
         d="M 8.7185878,4.0337352 -2.2072895,0.01601326 8.7185884,-4.0017078 c -1.7454984,2.3720609 -1.7354408,5.6174519 -6e-7,8.035443 z"
         style="fill:#000000;fill-opacity:1;fill-rule:evenodd;stroke:#000000;stroke-width:0.625;stroke-linejoin:round;stroke-opacity:1"
         id="path4730"
         inkscape:connector-curvature="0" />
    </marker>
    <marker
       inkscape:stockid="Arrow2Mend"
       orient="auto"
       refY="0"
       refX="0"
       id="Arrow2Mend"
       style="overflow:visible"
       inkscape:isstock="true"
       inkscape:collect="always">
      <path
         id="path4333"
         style="fill:#ff0000;fill-opacity:1;fill-rule:evenodd;stroke:#ff0000;stroke-width:0.625;stroke-linejoin:round;stroke-opacity:1"
         d="M 8.7185878,4.0337352 -2.2072895,0.01601326 8.7185884,-4.0017078 c -1.7454984,2.3720609 -1.7354408,5.6174519 -6e-7,8.035443 z"
         transform="scale(-0.6,-0.6)"
         inkscape:connector-curvature="0" />
    </marker>
    <marker
       inkscape:isstock="true"
       style="overflow:visible"
       id="marker4590"
       refX="0"
       refY="0"
       orient="auto"
       inkscape:stockid="Arrow1Lend">
      <path
         transform="matrix(-0.8,0,0,-0.8,-10,0)"
         style="fill:#00ff00;fill-opacity:1;fill-rule:evenodd;stroke:#00ff00;stroke-width:1pt;stroke-opacity:1"
         d="M 0,0 5,-5 -12.5,0 5,5 0,0 Z"
         id="path4592"
         inkscape:connector-curvature="0" />
    </marker>
  </defs>
  <sodipodi:namedview
     id="base"
     pagecolor="#ffffff"
     bordercolor="#666666"
     borderopacity="1.0"
     inkscape:pageopacity="0.0"
     inkscape:pageshadow="2"
     inkscape:zoom="0.58711449"
     inkscape:cx="137.08877"
     inkscape:cy="69.105635"
     inkscape:document-units="px"
     inkscape:current-layer="layer1"
     showgrid="true"
     inkscape:window-width="1315"
     inkscape:window-height="744"
     inkscape:window-x="51"
     inkscape:window-y="456"
     inkscape:window-maximized="1"
     showguides="true"
     inkscape:snap-intersection-paths="true"
     inkscape:object-nodes="true"
     inkscape:snap-smooth-nodes="true"
     inkscape:guide-bbox="true"
     fit-margin-top="0"
     fit-margin-left="0"
     fit-margin-right="0"
     fit-margin-bottom="0">
    <inkscape:grid
       type="xygrid"
       id="grid3368"
       originx="-34.503918"
       originy="-403.16259" />
  </sodipodi:namedview>
  <metadata
     id="metadata7">
    <rdf:RDF>
      <cc:Work
         rdf:about="">
        <dc:format>image/svg+xml</dc:format>
        <dc:type
           rdf:resource="http://purl.org/dc/dcmitype/StillImage" />
        <dc:title />
      </cc:Work>
    </rdf:RDF>
  </metadata>
  <g
     inkscape:label="Calque 1"
     inkscape:groupmode="layer"
     id="layer1"
     transform="translate(-34.503918,-135.08195)">
    <path
       style="fill:#ff0000;fill-opacity:1;fill-rule:evenodd;stroke:#b4b4b4;stroke-width:2.5;stroke-miterlimit:4;stroke-dasharray:none;stroke-dashoffset:0;stroke-opacity:1"
       id="path3336-1"
       cx="431.42856"
       cy="256.64792"
       r="171.42857"
       d=""
       inkscape:connector-curvature="0" />
    <path
       style="fill:none;fill-opacity:1;fill-rule:evenodd;stroke:#000000;stroke-width:3;stroke-miterlimit:4;stroke-dasharray:none;stroke-dashoffset:0;stroke-opacity:1"
       d="M 35.797966,477.14876 C 62.79598,431.09317 77.88072,370.02171 77.9503,306.4925 77.9179,242.99534 62.88401,181.92911 35.937216,135.83903"
       id="path3336-5-1"
       inkscape:connector-curvature="0"
       sodipodi:nodetypes="ccc" />
    <path
       style="fill:none;fill-opacity:1;fill-rule:evenodd;stroke:#000000;stroke-width:3;stroke-miterlimit:4;stroke-dasharray:none;stroke-dashoffset:0;stroke-opacity:1"
       d="M 52.766397,477.14969 C 77.18243,429.0772 90.54741,368.75955 90.57985,306.49343 90.53525,244.21992 77.15531,183.90245 52.724619,135.83996"
       id="path3336-10"
       inkscape:connector-curvature="0"
       sodipodi:nodetypes="ccc" />
    <path
       style="fill:none;fill-opacity:1;fill-rule:evenodd;stroke:#ff0000;stroke-width:3.56467986;stroke-miterlimit:4;stroke-dasharray:none;stroke-dashoffset:0;stroke-opacity:1;marker-end:url(#Arrow2Mend)"
       d="M 66.39574,400.62672 C 73.91687,371.02327 77.9146,339.08441 77.95031,306.49132 77.93362,273.9075 73.95687,241.96986 66.45699,212.3615"
       id="path3336-5-1-2"
       inkscape:connector-curvature="0"
       sodipodi:nodetypes="ccc" />
    <path
       style="fill:#ff0000;fill-rule:evenodd;stroke:#000000;stroke-width:1px;stroke-linecap:butt;stroke-linejoin:miter;stroke-opacity:1"
       d="m 120,292.36215 80,0 0,10.00001 20,-15 -20,-15 0,10 -80,-1e-5 0,10 z"
       id="path5510"
       inkscape:connector-curvature="0"
       sodipodi:nodetypes="ccccccccc" />
    <path
       style="fill:none;fill-rule:evenodd;stroke:#8c0000;stroke-width:6.25;stroke-linecap:butt;stroke-linejoin:miter;stroke-miterlimit:4;stroke-dasharray:none;stroke-opacity:1"
       d="M 422.78173,288.34504 C 404.41055,277.73842 376.641,281.26816 360,292.36215 c -15,10 -49.3934,-10.60659 -60,0 -15,15 -45,-9.99999 -62.73178,-0.89636"
       id="path5562-2"
       inkscape:connector-curvature="0"
       sodipodi:nodetypes="cssc" />
    <path
       style="fill:#ff0000;fill-rule:evenodd;stroke:#000000;stroke-width:1px;stroke-linecap:butt;stroke-linejoin:miter;stroke-opacity:1"
       d="m 460,288.36216 80,-1e-5 0,-10 20.00001,15 -20.00001,15 0,-10 -80,0 0,-9.99999 z"
       id="path5510-67"
       inkscape:connector-curvature="0"
       sodipodi:nodetypes="ccccccccc" />
    <path
       style="fill:#ff0000;fill-rule:evenodd;stroke:#000000;stroke-width:1px;stroke-linecap:butt;stroke-linejoin:miter;stroke-opacity:1"
       d="m 340.00001,352.36215 -10e-6,80 -10,0 15,20 15,-20 -10,0 0,-80 -9.99999,0 z"
       id="path5510-67-4"
       inkscape:connector-curvature="0"
       sodipodi:nodetypes="ccccccccc" />
    <g
       transform="translate(-169.91377,-33.20448)"
       id="g5840-9-6-6"
       style="fill:#ff0000;stroke:#8c0000;stroke-opacity:1">
      <path
         inkscape:connector-curvature="0"
         id="path5724-0-1-6-6-4"
         d="m 444.34563,529.2614 c -6.81125,-1.41602 -13.2546,-1.76319 -18.58804,0.97504"
         style="fill:#ff0000;fill-rule:evenodd;stroke:#8c0000;stroke-width:6.25;stroke-linecap:butt;stroke-linejoin:miter;stroke-miterlimit:4;stroke-dasharray:none;stroke-opacity:1" />
      <path
         inkscape:connector-curvature="0"
         id="path5720-6-3-9-4-5"
         d="m 482.44202,534.94928 c -8.55369,3.01008 -19.68503,-0.81659 -30.57592,-3.82165"
         style="fill:#ff0000;fill-rule:evenodd;stroke:#8c0000;stroke-width:6.25;stroke-linecap:butt;stroke-linejoin:miter;stroke-miterlimit:4;stroke-dasharray:none;stroke-opacity:1" />
      <path
         inkscape:connector-curvature="0"
         id="path5716-2-1-3-0-5"
         d="m 502.36695,528.24025 c -2.52519,-0.26508 -4.87903,-0.32729 -6.98272,-0.0738"
         style="fill:#ff0000;fill-rule:evenodd;stroke:#8c0000;stroke-width:6.25;stroke-linecap:butt;stroke-linejoin:miter;stroke-miterlimit:4;stroke-dasharray:none;stroke-opacity:1" />
      <path
         inkscape:connector-curvature="0"
         id="path5712-9-1-3-0-5"
         d="m 546.21078,532.36349 c -9.14508,3.93857 -23.453,-0.36089 -35.90238,-2.84611"
         style="fill:#ff0000;fill-rule:evenodd;stroke:#8c0000;stroke-width:6.25;stroke-linecap:butt;stroke-linejoin:miter;stroke-miterlimit:4;stroke-dasharray:none;stroke-opacity:1" />
      <path
         inkscape:connector-curvature="0"
         id="path5708-9-0-8-4-6"
         d="m 561.87793,524.62264 c -3.05634,1.05334 -5.97652,2.30441 -8.69498,3.73221"
         style="fill:#ff0000;fill-rule:evenodd;stroke:#8c0000;stroke-width:6.25;stroke-linecap:butt;stroke-linejoin:miter;stroke-miterlimit:4;stroke-dasharray:none;stroke-opacity:1" />
      <path
         inkscape:connector-curvature="0"
         id="path5704-0-3-0-6-0"
         d="M 586.22979,520.756 C 580.79696,520.65562 575.29195,521.22146 570,522.3622"
         style="fill:#ff0000;fill-rule:evenodd;stroke:#8c0000;stroke-width:6.25;stroke-linecap:butt;stroke-linejoin:miter;stroke-miterlimit:4;stroke-dasharray:none;stroke-opacity:1" />
      <path
         inkscape:connector-curvature="0"
         id="path5562-4-7-4-8-4-5-2-6"
         d="m 611.2711,527.11569 c -5.24158,-3.02623 -11.24823,-4.90169 -17.5432,-5.77903"
         style="fill:#ff0000;fill-rule:evenodd;stroke:#8c0000;stroke-width:6.25;stroke-linecap:butt;stroke-linejoin:miter;stroke-miterlimit:4;stroke-dasharray:none;stroke-opacity:1" />
    </g>
    <text
       xml:space="preserve"
       style="font-style:normal;font-variant:normal;font-weight:normal;font-stretch:normal;font-size:25px;line-height:100%;font-family:Sans;-inkscape-font-specification:'Sans, Normal';text-align:end;letter-spacing:0px;word-spacing:0px;writing-mode:lr-tb;text-anchor:end;fill:#ff0000;fill-opacity:1;stroke:none;stroke-width:1px;stroke-linecap:butt;stroke-linejoin:miter;stroke-opacity:1"
       x="311.05954"
       y="396.5802"
       id="text6087-2-4-6-2"
       sodipodi:linespacing="100%"><tspan
         sodipodi:role="line"
         x="311.05954"
         y="396.5802"
         style="font-style:normal;font-variant:normal;font-weight:normal;font-stretch:normal;font-size:25px;line-height:100%;font-family:Sans;-inkscape-font-specification:'Sans, Normal';text-align:end;writing-mode:lr-tb;text-anchor:end;fill:#ff0000"
         id="tspan6193-9">mRNA</tspan><tspan
         sodipodi:role="line"
         x="311.05954"
         y="421.5802"
         style="font-style:normal;font-variant:normal;font-weight:normal;font-stretch:normal;font-size:25px;line-height:100%;font-family:Sans;-inkscape-font-specification:'Sans, Normal';text-align:end;writing-mode:lr-tb;text-anchor:end;fill:#ff0000"
         id="tspan6400">degradation</tspan><tspan
         sodipodi:role="line"
         x="311.05954"
         y="446.5802"
         style="font-style:normal;font-variant:normal;font-weight:normal;font-stretch:normal;font-size:25px;line-height:100%;font-family:Sans;-inkscape-font-specification:'Sans, Normal';text-align:end;writing-mode:lr-tb;text-anchor:end;fill:#ff0000"
         id="tspan6159-0-2" /></text>
    <path
       style="fill:#ff0000;fill-rule:evenodd;stroke:#8c0000;stroke-width:3;stroke-linecap:butt;stroke-linejoin:miter;stroke-miterlimit:4;stroke-dasharray:none;stroke-opacity:1"
       d="m 657.04043,255.66762 c -2.34718,-3.02306 4.58988,-6.32435 5.62717,-10.00839 1.75941,-6.24865 4.70627,-14.34205 0.71503,-19.46173 -3.72029,-4.77211 -12.07638,-5.86918 -17.75495,-3.77937 -8.55832,3.14961 -11.7359,14.02219 -16.68288,21.68327 -3.262,5.05165 -5.36016,10.78381 -8.50501,15.90922 -3.85728,6.28651 -9.88718,11.30929 -12.67115,18.13926 -4.07468,9.99654 -8.13843,21.53404 -5.29848,31.94885 2.14149,7.8534 10.93035,12.11167 15.67162,18.72848 3.91222,5.45979 7.53068,11.17643 10.47598,17.21299 2.75903,5.65481 0.37864,17.77817 6.66949,17.65842 2.75738,-0.0525 2.23845,-5.11519 2.62668,-7.84561 0.97184,-6.83487 -1.336,-13.808 -0.84028,-20.69381 0.5548,-7.7065 -1.14046,-17.24955 4.24821,-22.78671 4.4412,-4.56359 12.67154,-6.12493 18.67814,-4.01034 6.92214,2.43691 7.09351,14.30114 13.88281,17.0868 5.68706,2.3334 13.8507,2.18908 18.33043,-2.02037 5.08005,-4.77356 3.89706,-13.64066 3.57861,-20.60431 -0.31682,-6.92811 -1.75499,-14.19859 -5.41646,-20.08864 -3.38461,-5.44468 -8.75461,-9.73849 -14.43639,-12.70792 -4.82838,-2.52343 -11.94058,-0.13327 -15.87033,-3.90661 -2.61676,-2.5126 0.13164,-8.67138 -3.02821,-10.45349 -2e-5,0 -2e-5,1e-5 -3e-5,1e-5 z"
       id="path6483"
       inkscape:connector-curvature="0"
       sodipodi:nodetypes="aaaaaaaaaaaaaaaaaaaaaaa" />
    <path
       style="fill:#ff0000;fill-rule:evenodd;stroke:#000000;stroke-width:1px;stroke-linecap:butt;stroke-linejoin:miter;stroke-opacity:1"
       d="m 660.00001,372.36215 -10e-6,80 -10,0 15,20 15,-20 -10,0 0,-80 -9.99999,0 z"
       id="path5510-67-4-7"
       inkscape:connector-curvature="0"
       sodipodi:nodetypes="ccccccccc" />
    <text
       xml:space="preserve"
       style="font-style:normal;font-variant:normal;font-weight:normal;font-stretch:normal;font-size:40px;line-height:100%;font-family:Sans;-inkscape-font-specification:'Sans, Normal';text-align:start;letter-spacing:0px;word-spacing:0px;writing-mode:lr-tb;text-anchor:start;fill:#ff0000;fill-opacity:1;stroke:none;stroke-width:1px;stroke-linecap:butt;stroke-linejoin:miter;stroke-opacity:1"
       x="91.995705"
       y="198.5675"
       id="text6087-6"
       sodipodi:linespacing="100%"><tspan
         sodipodi:role="line"
         id="tspan6089-8"
         x="91.995705"
         y="198.5675"
         style="font-style:italic;font-variant:normal;font-weight:normal;font-stretch:normal;font-size:25px;line-height:100%;font-family:Sans;-inkscape-font-specification:'Sans, Italic';text-align:start;writing-mode:lr-tb;text-anchor:start;fill:#ff0000"><tspan
           style="font-style:normal;font-variant:normal;font-weight:normal;font-stretch:normal;font-size:25px;line-height:100%;font-family:Sans;-inkscape-font-specification:'Sans, Normal';text-align:start;writing-mode:lr-tb;text-anchor:start;fill:#ff0000"
           id="tspan6113-1">gene</tspan></tspan></text>
    <text
       xml:space="preserve"
       style="font-style:normal;font-variant:normal;font-weight:normal;font-stretch:normal;font-size:40px;line-height:100%;font-family:Sans;-inkscape-font-specification:'Sans, Normal';text-align:start;letter-spacing:0px;word-spacing:0px;writing-mode:lr-tb;text-anchor:start;fill:#ff0000;fill-opacity:1;stroke:none;stroke-width:1px;stroke-linecap:butt;stroke-linejoin:miter;stroke-opacity:1"
       x="288.15027"
       y="196.86426"
       id="text6087-6-9"
       sodipodi:linespacing="100%"><tspan
         sodipodi:role="line"
         id="tspan6089-8-1"
         x="288.15027"
         y="196.86426"
         style="font-style:normal;font-variant:normal;font-weight:normal;font-stretch:normal;font-size:25px;line-height:100%;font-family:Sans;-inkscape-font-specification:'Sans, Italic';text-align:start;writing-mode:lr-tb;text-anchor:start;fill:#ff0000">mRNA</tspan></text>
    <text
       xml:space="preserve"
       style="font-style:normal;font-variant:normal;font-weight:normal;font-stretch:normal;font-size:40px;line-height:100%;font-family:Sans;-inkscape-font-specification:'Sans, Normal';text-align:start;letter-spacing:0px;word-spacing:0px;writing-mode:lr-tb;text-anchor:start;fill:#ff0000;fill-opacity:1;stroke:none;stroke-width:1px;stroke-linecap:butt;stroke-linejoin:miter;stroke-opacity:1"
       x="614.08539"
       y="192.19348"
       id="text6087-6-9-1"
       sodipodi:linespacing="100%"><tspan
         sodipodi:role="line"
         id="tspan6089-8-1-4"
         x="614.08539"
         y="192.19348"
         style="font-style:normal;font-variant:normal;font-weight:normal;font-stretch:normal;font-size:25px;line-height:100%;font-family:Sans;-inkscape-font-specification:'Sans, Italic';text-align:start;writing-mode:lr-tb;text-anchor:start;fill:#ff0000">protein</tspan></text>
    <path
       style="fill:#ff0000;fill-rule:evenodd;stroke:#8c0000;stroke-width:3;stroke-linecap:butt;stroke-linejoin:miter;stroke-miterlimit:4;stroke-dasharray:none;stroke-opacity:1"
       d="m 676.61937,611.7203 c -3.5173,4.4066 -7.14883,8.7044 -10.85937,12.9239 1.00526,1.7717 1.96516,3.5677 2.85742,5.3964 2.75903,5.6549 0.37907,17.7781 6.66992,17.6583 2.75738,-0.053 2.23872,-5.1153 2.62695,-7.8457 0.97184,-6.835 -1.33556,-13.8076 -0.83984,-20.6934 0.15411,-2.1406 0.13759,-4.4239 0.14453,-6.7227 -0.19855,-0.239 -0.40124,-0.4779 -0.59961,-0.7168 z"
       id="path7130"
       inkscape:connector-curvature="0" />
    <path
       style="fill:#ff0000;fill-rule:evenodd;stroke:#8c0000;stroke-width:3;stroke-linecap:butt;stroke-linejoin:miter;stroke-miterlimit:4;stroke-dasharray:none;stroke-opacity:1"
       d="m 645.17797,591.3024 c -1.39252,0.1483 -2.81418,0.1866 -4.2461,0.1797 0.71727,1.8371 1.80187,3.4755 3.08985,5.0078 0.0481,-0.2891 0.0878,-0.5735 0.13867,-0.8633 0.25063,-1.4279 0.58404,-2.8823 1.01758,-4.3242 z"
       id="path7128"
       inkscape:connector-curvature="0" />
    <path
       style="fill:#ff0000;fill-rule:evenodd;stroke:#8c0000;stroke-width:3;stroke-linecap:butt;stroke-linejoin:miter;stroke-miterlimit:4;stroke-dasharray:none;stroke-opacity:1"
       d="m 657.70922,588.8219 c -0.92493,0.931 -1.96963,1.6709 -3.07032,2.3066 -1.34432,2.0676 -2.03353,4.4882 -2.56836,7.5352 -0.2757,1.5707 -0.5075,3.2735 -0.79101,5.0488 2.48033,2.2479 4.98574,4.4977 6.86133,7.1153 1.51118,2.1089 2.95967,4.2677 4.36133,6.457 3.48559,-3.9925 6.88601,-8.0457 10.16406,-12.1895 -4.78609,-5.7003 -9.64744,-11.2579 -14.95703,-16.2734 z"
       id="path7126"
       inkscape:connector-curvature="0" />
    <path
       style="fill:#ff0000;fill-rule:evenodd;stroke:#8c0000;stroke-width:3;stroke-linecap:butt;stroke-linejoin:miter;stroke-miterlimit:4;stroke-dasharray:none;stroke-opacity:1"
       d="m 710.90453,591.9117 c -1.01309,0.012 -1.1925,0.1885 -1.32422,0.3321 -1.55493,3.0488 -3.35905,8.1791 -6.13281,12.5781 3.80203,4.3752 5.00605,12.3992 10.43554,14.6269 5.68706,2.3334 13.85035,2.1899 18.33008,-2.0195 3.98229,-3.742 4.11171,-9.9791 3.83008,-15.8633 -1.88754,-0.8409 -3.79502,-1.7156 -5.71484,-2.6074 -5.25197,-2.4396 -10.49455,-4.8654 -14.55469,-6.1211 -2.03007,-0.6278 -3.76501,-0.9389 -4.86914,-0.9258 z"
       id="path7124"
       inkscape:connector-curvature="0" />
    <path
       style="fill:#ff0000;fill-rule:evenodd;stroke:#8c0000;stroke-width:3;stroke-linecap:butt;stroke-linejoin:miter;stroke-miterlimit:4;stroke-dasharray:none;stroke-opacity:1"
       d="m 630.57054,571.78089 c -0.85933,3.92417 -1.26228,7.87511 -0.90625,11.73241 2.3056,0.1248 4.43927,0.096 6.24024,-0.2227 1.13637,-0.2009 1.99457,-0.6014 2.87695,-0.9921 0.56032,-0.6934 1.29595,-1.3031 2,-1.9317 -3.42264,-2.87722 -6.79061,-5.82907 -10.21094,-8.58591 z"
       id="path7122"
       inkscape:connector-curvature="0" />
    <path
       style="fill:#ff0000;fill-rule:evenodd;stroke:#8c0000;stroke-width:3;stroke-linecap:butt;stroke-linejoin:miter;stroke-miterlimit:4;stroke-dasharray:none;stroke-opacity:1"
       d="m 676.30687,574.71839 c -4.99363,2.94356 -9.76341,6.26801 -14.30664,9.89651 5.36387,5.0689 10.18347,10.5278 14.85547,16.0605 0.468,-0.3543 0.95447,-0.6587 1.44727,-0.9414 0.60456,-2.0069 1.53778,-3.8388 3.01953,-5.3613 0.15733,-0.1617 0.32951,-0.3108 0.49609,-0.4649 -1.51484,-2.1362 -2.6072,-4.63 -3.4082,-7.2812 -1.11216,-3.6811 -1.67642,-7.76225 -2.10352,-11.90821 z"
       id="path7120"
       inkscape:connector-curvature="0" />
    <path
       style="fill:#ff0000;fill-rule:evenodd;stroke:#8c0000;stroke-width:3;stroke-linecap:butt;stroke-linejoin:miter;stroke-miterlimit:4;stroke-dasharray:none;stroke-opacity:1"
       d="m 705.35765,565.04846 c -6.00902,1.4039 -11.8073,3.62327 -17.3789,6.42774 0.42313,4.9328 1.03524,9.6474 2.17383,13.416 0.73288,2.4257 1.66132,4.3972 2.80273,5.8945 3.56135,-1.3719 7.66348,-1.7184 11.25391,-0.9218 2.32587,-3.6627 4.20462,-9.0169 6.28515,-12.90823 l 0.13867,-0.25782 0.18555,-0.22656 c 1.51856,-1.85589 3.86743,-2.537 6.01563,-2.5625 2.14821,-0.0255 4.35232,0.46524 6.71289,1.19531 4.72112,1.46013 10.06258,3.97333 15.30859,6.4102 0.94217,0.4376 1.87129,0.8631 2.80078,1.289 -0.44694,-5.73213 -1.71681,-11.57937 -4.43164,-16.59373 -0.60801,0.0411 -1.21027,0.0796 -1.82031,0.1211 -9.86096,0.67144 -19.9732,1.00422 -30.04688,-1.28321 z"
       id="path7118"
       inkscape:connector-curvature="0" />
    <path
       style="fill:#ff0000;fill-rule:evenodd;stroke:#8c0000;stroke-width:3;stroke-linecap:butt;stroke-linejoin:miter;stroke-miterlimit:4;stroke-dasharray:none;stroke-opacity:1"
       d="m 675.25023,561.10706 c -0.21098,0.33088 -0.37382,0.62559 -0.58594,0.95703 -2.08291,3.25452 -3.31883,4.90658 -5.32031,7.90039 2.07987,-1.34281 4.15244,-2.69456 6.32031,-3.89844 -0.13035,-1.70731 -0.28252,-3.30009 -0.41406,-4.95898 z"
       id="path7116"
       inkscape:connector-curvature="0" />
    <path
       style="fill:#ff0000;fill-rule:evenodd;stroke:#8c0000;stroke-width:3;stroke-linecap:butt;stroke-linejoin:miter;stroke-miterlimit:4;stroke-dasharray:none;stroke-opacity:1"
       d="m 681.135,557.9801 c 0.12402,1.67139 0.26096,3.34426 0.36523,5.04297 2.29508,-1.08212 4.62881,-2.07622 7.01172,-2.95898 -2.4274,-0.72679 -4.82951,-1.48315 -7.37695,-2.08399 z"
       id="path7114"
       inkscape:connector-curvature="0" />
    <path
       style="fill:#ff0000;fill-rule:evenodd;stroke:#8c0000;stroke-width:3;stroke-linecap:butt;stroke-linejoin:miter;stroke-miterlimit:4;stroke-dasharray:none;stroke-opacity:1"
       d="m 733.21117,556.54651 c -1.76617,0.84515 -3.57289,1.6057 -5.41797,2.26953 2.41449,-0.0688 4.85349,-0.20156 7.30859,-0.35547 -0.60269,-0.66162 -1.23438,-1.29868 -1.89062,-1.91406 z"
       id="path7112"
       inkscape:connector-curvature="0" />
    <path
       style="fill:#ff0000;fill-rule:evenodd;stroke:#8c0000;stroke-width:3;stroke-linecap:butt;stroke-linejoin:miter;stroke-miterlimit:4;stroke-dasharray:none;stroke-opacity:1"
       d="m 648.76781,548.06799 c -1.97735,2.52359 -3.79733,5.13151 -5,8.08204 -1.20913,2.96639 -2.41236,6.07011 -3.43945,9.23828 4.38481,3.40598 8.46077,7.11399 12.45703,10.49218 3.18244,-4.53929 7.81196,-11.21615 12.82617,-19.05078 0.67915,-1.06117 1.2064,-2.02333 1.87109,-3.08789 -6.32368,-1.4451 -12.69115,-3.07451 -18.71484,-5.67383 z"
       id="path7110"
       inkscape:connector-curvature="0" />
    <path
       style="fill:#ff0000;fill-rule:evenodd;stroke:#8c0000;stroke-width:3;stroke-linecap:butt;stroke-linejoin:miter;stroke-miterlimit:4;stroke-dasharray:none;stroke-opacity:1"
       d="m 656.885,531.57776 c -0.76669,1.50581 -1.56257,2.99492 -2.44531,4.43359 -1.09319,1.78166 -2.3667,3.45692 -3.68555,5.10547 5.3945,2.09345 11.25889,3.52665 17.26367,4.91016 -0.4359,-2.5225 -0.95237,-4.79162 -1.71289,-6.34766 l -0.0332,-0.0684 -0.0293,-0.0684 c -2.00148,-4.67658 -5.07761,-5.89342 -9.10156,-7.83593 -0.0832,-0.0402 -0.17191,-0.0879 -0.25586,-0.12891 z"
       id="path7108"
       inkscape:connector-curvature="0" />
    <path
       style="fill:#ff0000;fill-rule:evenodd;stroke:#8c0000;stroke-width:3;stroke-linecap:butt;stroke-linejoin:miter;stroke-miterlimit:4;stroke-dasharray:none;stroke-opacity:1"
       d="m 707.18969,513.42346 c -1.84841,0.0429 -3.46838,0.26379 -4.64649,0.6875 -1.48003,0.5323 -2.24153,1.15781 -2.7832,2.42774 l -0.0332,0.0762 -0.0371,0.0742 c -3.3958,6.8819 -4.87127,8.67268 -5.73438,9.93945 -0.86311,1.26676 -1.51127,2.47309 -4.13281,9.75 -1.13492,3.40137 -3.743,8.15501 -6.78711,13.29102 4.54915,1.0892 9.10059,2.28826 13.5332,3.88476 l 0.008,0.004 0.008,0.002 c 1.62975,0.59718 3.29785,0.92159 4.95312,1.33594 1.34554,-0.28343 2.6776,-0.60924 4.04688,-0.81641 l 0.14453,-0.0215 0.14648,-0.008 c 5.54573,-0.2923 10.95184,-1.58322 16.03906,-3.67774 -1.29337,-0.85359 -2.62346,-1.63956 -3.9746,-2.3457 -4.82838,-2.52343 -11.94135,-0.13291 -15.8711,-3.90625 -2.61676,-2.5126 0.13251,-8.67102 -3.02734,-10.45313 -2.34718,-3.02306 4.58966,-6.32377 5.62695,-10.00781 0.88672,-3.14923 2.07172,-6.76679 2.52149,-10.23633 z"
       id="path7106"
       inkscape:connector-curvature="0" />
    <path
       style="fill:#ff0000;fill-rule:evenodd;stroke:#8c0000;stroke-width:3;stroke-linecap:butt;stroke-linejoin:miter;stroke-miterlimit:4;stroke-dasharray:none;stroke-opacity:1"
       d="m 693.51195,499.40784 c -2.07432,0.0157 -4.11021,0.3567 -5.88476,1.00976 -8.55833,3.14961 -11.73467,14.02252 -16.68165,21.6836 -1.26356,1.95679 -2.33807,4.02513 -3.38085,6.11133 0.0636,0.0306 0.11919,0.0588 0.18359,0.0898 3.86313,1.86488 9.15467,4.30565 11.97265,10.81641 0.3715,0.76713 0.56206,1.69764 0.85743,2.5332 1.54751,-2.86456 3.07718,-5.72477 3.57226,-7.22852 l 0.0137,-0.0391 0.0137,-0.0391 c 2.6621,-7.38948 3.67289,-9.41255 4.81836,-11.09375 1.14548,-1.68119 2.02822,-2.55693 5.31445,-9.2168 l -0.0703,0.15039 c 1.22202,-2.86499 3.66232,-4.77965 6.27343,-5.71875 2.04852,-0.73676 4.2256,-0.99902 6.44922,-1.04492 -0.31278,-1.16035 -0.81828,-2.24743 -1.58008,-3.22461 -2.55769,-3.28082 -7.30758,-4.82367 -11.87109,-4.78906 z"
       id="path6483-0"
       inkscape:connector-curvature="0" />
    <text
       xml:space="preserve"
       style="font-style:normal;font-variant:normal;font-weight:normal;font-stretch:normal;font-size:25px;line-height:100%;font-family:Sans;-inkscape-font-specification:'Sans, Normal';text-align:end;letter-spacing:0px;word-spacing:0px;writing-mode:lr-tb;text-anchor:end;fill:#ff0000;fill-opacity:1;stroke:none;stroke-width:1px;stroke-linecap:butt;stroke-linejoin:miter;stroke-opacity:1"
       x="810.9939"
       y="416.5802"
       id="text6087-2-4-6-2-1"
       sodipodi:linespacing="100%"><tspan
         sodipodi:role="line"
         x="810.9939"
         y="416.5802"
         style="font-style:normal;font-variant:normal;font-weight:normal;font-stretch:normal;font-size:25px;line-height:100%;font-family:Sans;-inkscape-font-specification:'Sans, Normal';text-align:end;writing-mode:lr-tb;text-anchor:end;fill:#ff0000"
         id="tspan6159-0-2-7">proteolysis</tspan></text>
  </g>
</svg>
